<?xml version="1.0" standalone="no"?>
<!DOCTYPE svg PUBLIC "-//W3C//DTD SVG 20010904//EN"
 "http://www.w3.org/TR/2001/REC-SVG-20010904/DTD/svg10.dtd">
<svg version="1.0" xmlns="http://www.w3.org/2000/svg"
 width="500.000000pt" height="500.000000pt" viewBox="0 0 500.000000 500.000000"
 preserveAspectRatio="xMidYMid meet">

<g transform="translate(0.000000,500.000000) scale(0.100000,-0.100000)"
fill="#000000" stroke="none">
<path d="M1415 4104 c-159 -35 -267 -96 -390 -219 -72 -73 -98 -107 -132 -175
-57 -115 -73 -183 -80 -325 -9 -206 37 -388 156 -622 219 -430 662 -870 1312
-1304 l118 -79 76 0 76 0 107 71 c560 373 973 757 1215 1129 189 292 276 559
264 805 -7 137 -25 204 -84 325 -39 80 -60 109 -137 186 -77 76 -106 97 -186
136 -136 66 -208 83 -365 82 -103 0 -147 -4 -215 -22 -258 -69 -498 -278 -623
-544 -23 -48 -47 -88 -52 -88 -6 0 -24 28 -39 63 -46 98 -151 251 -222 322
-118 117 -258 203 -404 245 -101 29 -296 36 -395 14z m643 -685 c61 -112 84
-151 88 -146 2 2 0 34 -5 71 -9 66 -7 96 9 96 4 0 26 -60 49 -132 50 -156 65
-183 123 -225 48 -34 54 -45 93 -153 28 -76 73 -165 81 -158 2 3 -5 23 -16 46
-33 68 -28 87 45 158 36 34 90 75 120 89 30 15 59 33 65 40 10 13 52 26 90 30
9 0 22 5 29 10 9 5 18 2 26 -8 11 -15 13 -14 23 8 16 35 32 31 32 -7 l1 -33
15 28 c21 40 38 34 31 -10 -3 -21 -8 -47 -12 -58 -4 -11 10 -1 30 23 52 60 90
55 46 -6 -10 -15 -24 -38 -31 -52 l-13 -25 29 26 c27 25 66 49 78 49 15 0 3
-27 -26 -59 -24 -25 -28 -32 -13 -26 37 14 65 17 65 8 0 -6 -27 -31 -60 -57
-33 -26 -60 -49 -60 -51 0 -2 19 2 41 10 48 17 59 18 59 6 0 -5 -37 -30 -83
-55 -69 -37 -87 -52 -101 -83 -13 -29 -31 -46 -73 -68 -85 -45 -85 -51 -14
-122 l61 -61 0 -64 c0 -62 -11 -88 -36 -88 -6 0 -15 11 -18 24 -8 32 -59 68
-98 70 -27 1 -36 -5 -62 -47 -29 -47 -29 -50 -13 -75 9 -15 34 -61 56 -103 22
-42 47 -79 56 -83 38 -14 97 -5 148 23 104 59 207 86 281 73 61 -11 55 -28
-13 -35 -87 -8 -173 -54 -334 -180 -206 -162 -211 -166 -285 -199 -47 -22 -88
-32 -138 -36 -69 -4 -71 -4 -97 28 -40 47 -35 56 31 64 70 8 265 101 270 129
3 16 -1 17 -31 12 -52 -10 -101 10 -157 65 -47 46 -51 48 -80 37 -26 -10 -32
-9 -44 8 -9 13 -11 25 -5 37 17 32 10 38 -48 38 -63 0 -130 19 -143 40 -7 11
-23 12 -87 2 -110 -17 -169 -16 -177 4 -9 25 9 48 58 73 40 21 53 23 116 17
69 -7 158 4 189 24 22 13 -6 43 -34 36 -15 -4 -28 1 -40 14 -11 12 -31 20 -52
20 -19 0 -40 8 -50 19 -159 168 -199 226 -224 326 -6 28 -23 62 -37 77 -16 17
-22 33 -18 44 3 9 1 23 -5 30 -6 8 -8 21 -5 30 4 9 1 23 -5 30 -14 17 -5 44
16 44 24 0 18 13 -15 32 -42 24 -39 46 7 50 l37 3 -42 28 c-49 32 -57 61 -14
51 15 -4 37 -11 50 -15 50 -19 55 -7 10 21 -41 26 -68 55 -68 74 0 15 38 2
120 -39 49 -25 93 -45 96 -45 4 0 -15 19 -41 42 -78 69 -132 158 -95 158 5 0
46 -31 89 -70 44 -38 82 -70 85 -70 3 0 -13 26 -36 59 -28 41 -42 73 -46 106
-6 59 3 55 58 -23 21 -31 53 -73 70 -92 l30 -35 -29 55 c-43 81 -53 159 -18
147 6 -2 26 -32 45 -68z"/>
<path d="M2599 2132 c14 -26 42 -48 79 -60 28 -10 38 -8 65 9 l32 21 -35 -5
c-35 -4 -112 21 -124 42 -12 19 -28 13 -17 -7z"/>
<path d="M997 1333 c-9 -55 -44 -94 -103 -113 l-48 -16 46 -13 c58 -16 88 -47
103 -106 l11 -46 18 56 c19 61 51 89 114 101 l34 7 -52 17 c-65 22 -78 35 -99
101 l-18 53 -6 -41z"/>
<path d="M2944 1025 c-9 -23 3 -45 24 -45 25 0 44 23 36 44 -8 20 -53 21 -60
1z"/>
<path d="M3356 1024 c-9 -22 12 -46 38 -42 15 2 21 10 21 28 0 20 -6 26 -26
28 -18 2 -29 -3 -33 -14z"/>
<path d="M993 986 c15 -11 17 -32 17 -154 0 -124 -2 -142 -17 -151 -14 -8 1
-10 57 -10 56 0 71 2 58 10 -24 13 -26 130 -3 149 17 14 33 6 45 -24 7 -17 9
-13 9 21 1 52 -9 59 -43 32 l-27 -21 3 73 c3 67 5 74 25 77 28 4 62 -30 70
-68 8 -43 23 -37 23 9 0 22 3 46 6 55 5 14 -9 16 -117 16 -105 -1 -121 -3
-106 -14z"/>
<path d="M2673 986 c15 -11 17 -32 17 -154 0 -124 -2 -142 -17 -151 -13 -8 17
-10 106 -11 108 0 122 2 117 16 -3 9 -6 40 -6 70 0 63 -15 72 -23 14 -8 -59
-32 -92 -65 -88 l-27 3 -3 144 c-2 128 -1 145 15 157 16 12 8 13 -57 13 -64 0
-73 -1 -57 -13z"/>
<path d="M3897 940 c-14 -11 -31 -20 -39 -20 -9 0 -13 -17 -13 -65 0 -37 -4
-65 -10 -65 -6 0 -10 28 -10 65 0 59 -2 65 -20 65 -11 0 -31 -7 -43 -16 -27
-19 -30 -78 -6 -105 15 -17 15 -20 -10 -49 -14 -18 -26 -35 -26 -39 0 -5 33
-12 73 -15 39 -4 83 -14 95 -22 23 -15 23 -16 6 -35 -26 -29 0 -23 30 7 54 55
19 104 -80 112 -68 6 -79 19 -16 18 69 -1 102 23 102 74 0 29 -5 43 -20 52
-27 17 -25 28 4 28 13 0 27 -8 31 -17 6 -17 7 -17 21 1 10 14 11 23 3 33 -16
19 -42 16 -72 -7z"/>
<path d="M1458 918 c16 -16 17 -219 0 -236 -9 -9 2 -12 52 -12 50 0 61 3 52
12 -15 15 -17 228 -2 228 6 0 22 -12 36 -27 l24 -28 -2 34 -3 34 -85 4 c-68 3
-82 1 -72 -9z"/>
<path d="M1683 914 c-107 -53 -68 -244 50 -244 27 0 72 31 88 62 11 20 10 20
-12 4 -13 -9 -33 -16 -45 -16 -22 0 -54 28 -54 48 0 6 29 25 65 44 36 18 65
36 65 41 0 17 -21 47 -41 58 -16 8 -20 8 -15 0 9 -14 -23 -67 -58 -100 -24
-23 -26 -23 -26 -5 0 45 22 94 48 109 l27 14 -30 0 c-16 0 -44 -7 -62 -15z"/>
<path d="M1856 912 c11 -10 40 -69 64 -130 39 -97 48 -112 68 -112 17 0 27 9
38 35 15 38 19 58 5 37 -12 -19 -75 140 -66 167 6 20 2 21 -61 21 -66 0 -67 0
-48 -18z"/>
<path d="M2033 912 c9 -9 17 -38 19 -64 l3 -46 30 64 31 64 -50 0 c-46 0 -48
-1 -33 -18z"/>
<path d="M2183 910 c-37 -22 -50 -43 -53 -85 -5 -69 0 -87 34 -121 45 -45 95
-47 137 -5 35 35 39 59 7 37 -33 -23 -65 -20 -84 9 -9 14 -15 27 -13 29 2 2
32 18 67 35 69 35 77 53 39 89 -29 27 -37 28 -30 3 3 -14 -8 -33 -37 -63 l-42
-43 6 45 c3 32 12 51 31 67 l26 23 -28 0 c-15 0 -42 -9 -60 -20z"/>
<path d="M2350 920 c0 -6 5 -10 10 -10 15 0 13 -213 -2 -228 -9 -9 2 -12 53
-11 35 0 58 3 52 6 -15 6 -19 233 -4 233 5 0 18 -11 29 -25 26 -33 34 -32 30
7 l-3 32 -82 3 c-50 2 -83 -1 -83 -7z"/>
<path d="M2928 815 c3 -80 0 -120 -8 -130 -11 -13 -4 -15 50 -15 50 0 60 3 52
13 -6 7 -13 64 -14 128 l-3 114 -40 3 -40 3 3 -116z"/>
<path d="M3040 920 c0 -5 5 -10 11 -10 10 0 21 -23 79 -162 27 -66 36 -78 55
-78 17 0 26 8 34 32 6 17 9 34 6 36 -3 3 -5 1 -5 -4 -1 -5 -16 31 -36 80 -26
68 -32 92 -23 102 10 12 0 14 -55 14 -37 0 -66 -4 -66 -10z"/>
<path d="M3236 905 c13 -19 15 -38 11 -78 l-6 -52 24 59 c13 32 29 64 34 69
20 20 11 27 -34 27 l-45 0 16 -25z"/>
<path d="M3330 920 c0 -5 5 -10 10 -10 15 0 13 -213 -2 -228 -9 -9 16 -12 112
-12 96 0 121 3 112 12 -8 8 -12 47 -12 109 0 89 2 98 20 104 11 3 24 3 30 0
15 -9 13 -198 -2 -213 -9 -9 2 -12 52 -12 50 0 61 3 52 12 -8 8 -12 47 -12
109 0 75 -4 101 -16 113 -17 18 -76 21 -104 6 -13 -7 -19 -6 -24 5 -4 10 -20
15 -52 15 -39 0 -44 -2 -35 -14 8 -9 11 -51 9 -122 -3 -94 -5 -109 -20 -112
-16 -3 -18 7 -18 110 0 75 -4 118 -12 126 -14 14 -88 16 -88 2z"/>
<path d="M1284 908 c-33 -16 -49 -55 -49 -120 1 -49 5 -62 26 -83 31 -32 88
-42 130 -25 74 31 80 188 8 225 -32 17 -84 18 -115 3z m76 -17 c16 -30 13
-174 -4 -197 -25 -33 -40 -3 -44 84 -5 106 20 165 48 113z"/>
<path d="M4248 824 c-3 -5 -9 -22 -12 -39 -11 -48 -39 -76 -95 -95 l-52 -17
44 -11 c53 -14 94 -53 103 -98 9 -47 21 -51 28 -9 10 52 50 93 104 107 l47 12
-44 13 c-58 17 -89 47 -105 102 -7 24 -15 40 -18 35z"/>
<path d="M3714 659 c-18 -20 -18 -21 0 -34 21 -16 103 -31 113 -21 4 3 -5 6
-18 6 -37 0 -63 23 -56 49 7 27 -14 28 -39 0z"/>
<path d="M3450 325 l0 -56 38 3 37 3 0 50 0 50 -37 3 -38 3 0 -56z m52 20 c0
-5 -5 -11 -11 -13 -6 -2 -11 4 -11 13 0 9 5 15 11 13 6 -2 11 -8 11 -13z m8
-45 c0 -5 -7 -10 -15 -10 -8 0 -15 5 -15 10 0 6 7 10 15 10 8 0 15 -4 15 -10z"/>
<path d="M3570 325 l0 -55 35 0 c19 0 35 5 35 10 0 6 -9 10 -20 10 -11 0 -20
5 -20 10 0 6 7 10 15 10 8 0 15 5 15 10 0 6 -7 10 -15 10 -8 0 -15 7 -15 15 0
8 9 15 20 15 11 0 20 5 20 10 0 6 -16 10 -35 10 l-35 0 0 -55z"/>
<path d="M3695 368 c-33 -91 -34 -98 -20 -98 8 0 15 5 15 10 0 14 33 13 48 -2
22 -22 24 1 6 52 -17 48 -39 65 -49 38z m23 -57 c-15 -5 -19 4 -11 24 6 18 7
18 13 -1 4 -10 3 -21 -2 -23z"/>
<path d="M3790 344 c0 -63 26 -87 74 -68 12 4 16 20 16 55 0 60 -18 65 -22 7
-2 -31 -8 -44 -20 -46 -15 -3 -18 4 -18 42 0 34 -4 46 -15 46 -11 0 -15 -11
-15 -36z"/>
<path d="M3920 325 c0 -54 0 -55 29 -55 16 0 37 7 45 16 36 35 6 94 -47 94
-26 0 -27 -2 -27 -55z m64 13 c7 -12 6 -21 -3 -32 -21 -25 -31 -19 -31 20 0
37 14 42 34 12z"/>
<path d="M4050 325 c0 -30 5 -55 10 -55 6 0 10 9 10 20 0 26 14 25 33 -2 8
-13 18 -20 22 -16 4 4 2 14 -4 22 -9 11 -9 19 0 34 17 27 -3 52 -42 52 -28 0
-29 -1 -29 -55z m55 26 c7 -12 -12 -24 -25 -16 -11 7 -4 25 10 25 5 0 11 -4
15 -9z"/>
<path d="M4160 373 c0 -5 7 -17 15 -27 8 -11 15 -32 15 -48 0 -15 5 -28 10
-28 6 0 10 10 10 21 0 12 9 37 21 55 22 36 8 49 -17 17 -13 -17 -15 -17 -25 0
-10 17 -29 24 -29 10z"/>
</g>
</svg>
